<svg width="278" height="411" viewBox="0 0 278 411" fill="none" xmlns="http://www.w3.org/2000/svg">
<path d="M15.8983 375.002L18.7112 342.647L60.8439 366.997L22.1329 394.075C21.3858 394.597 20.5052 394.895 19.5946 394.935C18.6839 394.974 17.781 394.753 16.9916 394.298C16.2022 393.842 15.5592 393.171 15.138 392.362C14.7168 391.554 14.5349 390.642 14.6136 389.734L15.8983 375.002Z" fill="black"/>
<path d="M64.4122 352.156L30.3163 332.487C26.8939 330.557 22.8564 330.029 19.0526 331.014C16.2795 331.777 13.793 333.341 11.9049 335.51C10.0169 337.679 8.81101 340.357 8.43851 343.209C8.06602 346.06 8.5434 348.958 9.81089 351.539C11.0784 354.121 13.0795 356.271 15.5637 357.72L49.6596 377.383C53.0786 379.317 57.1158 379.845 60.9173 378.856C63.6892 378.093 66.1744 376.53 68.0618 374.361C69.9492 372.193 71.155 369.516 71.5281 366.666C71.9011 363.816 71.425 360.919 70.1592 358.338C68.8935 355.757 66.8944 353.606 64.4122 352.156Z" fill="black"/>
<path d="M249.169 127.745C256.694 114.718 264.305 101.739 271.739 88.6569C274.69 83.933 276.623 78.6458 277.416 73.1329C278.208 67.62 277.842 62.0025 276.341 56.639C274.84 51.2755 272.236 46.2839 268.697 41.9828C265.158 37.6817 260.762 34.1656 255.787 31.659C240.998 23.1364 226.258 14.4921 211.42 6.04861C206.928 3.2319 201.917 1.34613 196.683 0.503326C191.449 -0.339478 186.098 -0.122118 180.95 1.1424C175.801 2.40692 170.959 4.69283 166.711 7.8645C162.463 11.0362 158.896 15.0288 156.221 19.6056C144.099 39.3415 133.011 59.7836 121.431 79.8726L61.0814 184.384L18.084 258.853C13.2548 266.638 10.2397 275.41 9.26181 284.518C7.80055 299.859 6.58268 315.236 5.24929 330.589L0.652588 383.387C-0.745433 389.53 0.119237 395.971 3.08797 401.528C16.7446 423.059 41.0257 399.634 54.2318 390.381L106.125 354.087C115.684 347.391 125.504 341.535 131.642 331.308C136.111 323.85 140.342 316.235 144.689 308.71L246.727 132L249.163 127.739C258.588 111.424 233.333 96.6926 223.932 112.989L172.526 202.008L108.438 313.002C107.677 314.317 106.971 315.705 106.137 316.977C102.039 323.254 93.7404 327.18 87.6458 331.441L50.5786 357.368L32.045 370.329C26.1165 375.203 19.7445 379.512 13.0123 383.198L20.3856 381.201H20.8726L27.3203 384.957L27.4299 385.243L29.427 392.615C29.2623 387.16 29.6129 381.702 30.4742 376.313L33.4698 341.961L36.6662 305.192C37.2751 298.082 37.3178 290.582 38.5477 283.575C40.86 276.702 44.2533 270.241 48.5999 264.436L76.2054 216.624L150.267 88.3708L175.948 43.9011C180.368 36.243 184.472 25.1636 195.145 30.4232C203.712 34.648 211.864 40.0721 220.108 44.8447C228.023 49.4043 236.492 53.5316 244.042 58.6634C251.434 63.6857 248.913 69.7489 245.169 76.1895L227.938 106.019L223.908 112.995C214.513 129.31 239.762 144.042 249.169 127.745Z" fill="black"/>
<path d="M23.1728 294.583L100.315 339.113C101.972 340.082 103.803 340.715 105.704 340.976C107.605 341.237 109.539 341.12 111.396 340.634C113.252 340.148 114.995 339.3 116.524 338.141C118.053 336.981 119.338 335.532 120.307 333.875C121.275 332.219 121.908 330.388 122.169 328.487C122.43 326.586 122.314 324.652 121.827 322.796C121.341 320.94 120.493 319.198 119.334 317.669C118.174 316.14 116.724 314.855 115.067 313.887L37.9254 269.356C36.2687 268.388 34.4375 267.755 32.5362 267.494C30.635 267.233 28.701 267.349 26.8446 267.835C24.9882 268.322 23.2458 269.169 21.7168 270.329C20.1879 271.489 18.9025 272.938 17.9338 274.594C16.9651 276.251 16.3322 278.082 16.0713 279.983C15.8103 281.884 15.9265 283.817 16.413 285.674C16.8995 287.53 17.7468 289.272 18.9067 290.8C20.0666 292.329 21.5161 293.614 23.1728 294.583Z" fill="black"/>
</svg>
