<svg width="88" height="95" viewBox="0 0 88 95" fill="none" xmlns="http://www.w3.org/2000/svg">
<path d="M34.656 95V75.288H9.696V65.816H34.656V57.496H9.696V48.024H30.304L0.224001 0.535995H22.368L34.016 23.576C35.6373 26.7333 36.9173 29.3787 37.856 31.512C38.88 33.6453 39.8187 35.608 40.672 37.4C41.6107 39.192 42.6773 41.24 43.872 43.544H44.512C45.792 41.24 46.8587 39.192 47.712 37.4C48.6507 35.5227 49.632 33.5173 50.656 31.384C51.68 29.2507 52.9173 26.648 54.368 23.576L65.888 0.535995H87.648L57.44 48.024H78.176V57.496H53.344V65.816H78.176V75.288H53.344V95H34.656Z" fill="black"/>
</svg>
